<svg width="800" height="450" viewBox="0 0 800 450" fill="none" xmlns="http://www.w3.org/2000/svg">
  <rect width="800" height="450" fill="#F8FAFC"/>
  <!-- Top Bar -->
  <rect x="24" y="24" width="752" height="44" rx="8" fill="#FFFFFF" stroke="#E2E8F0"/>
  <circle cx="48" cy="46" r="4.5" fill="#06B6D4"/>
  <text x="64" y="51" fill="#0F172A" font-family="sans-serif" font-size="12" font-weight="700">Intelligent Document &amp; Invoice Automation Pipeline</text>
  <rect x="650" y="34" width="110" height="24" rx="6" fill="#EFF6FF" stroke="#BFDBFE"/>
  <text x="664" y="50" fill="#1D4ED8" font-family="monospace" font-size="11" font-weight="600">Zero Error Rate</text>

  <!-- Flow Steps -->
  <rect x="24" y="80" width="752" height="346" rx="8" fill="#FFFFFF" stroke="#E2E8F0"/>
  
  <!-- Step 1: Ingestion -->
  <rect x="54" y="120" width="180" height="260" rx="8" fill="#F8FAFC" stroke="#E2E8F0"/>
  <rect x="74" y="140" width="140" height="30" rx="6" fill="#EFF6FF" stroke="#BFDBFE"/>
  <text x="86" y="160" fill="#1E40AF" font-family="sans-serif" font-size="12" font-weight="700">01. PDF / Scans</text>
  <rect x="74" y="186" width="140" height="170" rx="6" fill="#FFFFFF" stroke="#E2E8F0"/>
  <line x1="88" y1="210" x2="198" y2="210" stroke="#CBD5E1" stroke-width="2"/>
  <line x1="88" y1="230" x2="178" y2="230" stroke="#CBD5E1" stroke-width="2"/>
  <line x1="88" y1="250" x2="190" y2="250" stroke="#CBD5E1" stroke-width="2"/>
  <text x="88" y="330" fill="#64748B" font-family="monospace" font-size="10">2,400 files/day</text>

  <!-- Arrow 1 -->
  <path d="M246 250H286M286 250L276 240M286 250L276 260" stroke="#2563EB" stroke-width="2.5" stroke-linecap="round"/>

  <!-- Step 2: Extraction -->
  <rect x="300" y="120" width="200" height="260" rx="8" fill="#F8FAFC" stroke="#E2E8F0"/>
  <rect x="320" y="140" width="160" height="30" rx="6" fill="#ECFEFF" stroke="#A5F3FC"/>
  <text x="332" y="160" fill="#0E7490" font-family="sans-serif" font-size="12" font-weight="700">02. Vision Extraction</text>
  <rect x="320" y="186" width="160" height="170" rx="6" fill="#FFFFFF" stroke="#E2E8F0"/>
  <text x="332" y="212" fill="#0F172A" font-family="sans-serif" font-size="11" font-weight="600">JSON Schema:</text>
  <text x="332" y="232" fill="#047857" font-family="monospace" font-size="10">"invoice_num": 8941</text>
  <text x="332" y="250" fill="#047857" font-family="monospace" font-size="10">"vendor": "Acme"</text>
  <text x="332" y="268" fill="#047857" font-family="monospace" font-size="10">"total": $42,500.00</text>
  <text x="332" y="286" fill="#047857" font-family="monospace" font-size="10">"tax_id": "US-991"</text>
  <text x="332" y="330" fill="#0E7490" font-family="monospace" font-size="10">Confidence: 99.9%</text>

  <!-- Arrow 2 -->
  <path d="M512 250H552M552 250L542 240M552 250L542 260" stroke="#06B6D4" stroke-width="2.5" stroke-linecap="round"/>

  <!-- Step 3: ERP Integration -->
  <rect x="566" y="120" width="180" height="260" rx="8" fill="#F8FAFC" stroke="#E2E8F0"/>
  <rect x="586" y="140" width="140" height="30" rx="6" fill="#ECFDF5" stroke="#A7F3D0"/>
  <text x="598" y="160" fill="#047857" font-family="sans-serif" font-size="12" font-weight="700">03. ERP Sync</text>
  <rect x="586" y="186" width="140" height="170" rx="6" fill="#FFFFFF" stroke="#E2E8F0"/>
  <text x="598" y="214" fill="#0F172A" font-family="sans-serif" font-size="11" font-weight="600">NetSuite / SAP</text>
  <rect x="598" y="230" width="116" height="20" rx="4" fill="#EFF6FF"/>
  <text x="604" y="244" fill="#1D4ED8" font-family="monospace" font-size="9">Reconciled</text>
  <rect x="598" y="258" width="116" height="20" rx="4" fill="#ECFDF5"/>
  <text x="604" y="272" fill="#047857" font-family="monospace" font-size="9">Payment Approved</text>
  <text x="598" y="330" fill="#059669" font-family="monospace" font-size="10">Auto-approved</text>
</svg>
